<svg xmlns="http://www.w3.org/2000/svg" viewBox="0 0 1600 1000" aria-labelledby="pastoralTitle pastoralDesc"><defs><linearGradient id="a" x1="0" y1="0" x2="0" y2="1"><stop offset="0%" stop-color="#fef8ec"/><stop offset="55%" stop-color="#b9e6d3"/><stop offset="100%" stop-color="#5ca78d"/></linearGradient><linearGradient id="c" x1="0" y1="0" x2="1" y2="1"><stop offset="0%" stop-color="#0c4d38"/><stop offset="100%" stop-color="#127d5d"/></linearGradient><radialGradient id="b" cx=".5" cy=".2" r=".6"><stop offset="0%" stop-color="#ffe9a8" stop-opacity=".95"/><stop offset="65%" stop-color="#fdd377" stop-opacity=".6"/><stop offset="100%" stop-color="#efb15c" stop-opacity=".2"/></radialGradient></defs><path fill="url(#a)" d="M0 0h1600v1000H0z"/><circle cx="800" cy="210" r="320" fill="url(#b)"/><g opacity=".6" fill="#fff"><path d="M0 380c180-70 340-90 520-60s320 110 480 124 340-22 600-124v160H0z" opacity=".25"/><path d="M0 540c200-80 360-106 520-88s320 96 480 108 340-18 600-108v160H0z" opacity=".2"/></g><g fill="url(#c)"><path d="M0 640c210-94 410-126 590-102s320 122 490 138 340-28 520-138v462H0z" opacity=".88"/><path d="M0 790c200-84 370-112 520-96s300 118 470 134 330-26 610-134v306H0z" opacity=".75"/></g><g transform="translate(720 520)"><path d="M80 180h160V-40l-80-60-80 60z" fill="#f6e7b3" opacity=".92"/><path d="M140-14h40v374h-40z" fill="#c4963d"/><path d="M20 180h280v60H20z" fill="#2b5f4b" opacity=".8"/><circle cx="160" cy="40" r="52" fill="#f5d781" opacity=".9"/><path d="M144 36h32v136h-32z" fill="#deac3c" opacity=".85"/><path d="m80 180 80-60 80 60z" fill="#f2b94f" opacity=".7"/></g><g opacity=".3"><path d="m200 180 60 220 80-100 40 120 120-160 60 200 100-180 80 180 120-220 80 200 120-180 60 160 120-180 60 220" stroke="#fff" stroke-width="12" stroke-linecap="round" stroke-linejoin="round" fill="none" opacity=".35"/></g></svg>