<svg width="640" height="360" viewBox="0 0 640 360" xmlns="http://www.w3.org/2000/svg">
  <defs>
    <linearGradient id="gridGradient" x1="0" x2="1" y1="1" y2="0">
      <stop offset="0%" stop-color="#082821" />
      <stop offset="100%" stop-color="#3dcf9a" />
    </linearGradient>
  </defs>
  <rect width="640" height="360" rx="28" fill="url(#gridGradient)" />
  <g stroke="rgba(255,255,255,0.2)" stroke-width="1">
    <path d="M80 60 V300" />
    <path d="M160 60 V300" />
    <path d="M240 60 V300" />
    <path d="M320 60 V300" />
    <path d="M400 60 V300" />
    <path d="M480 60 V300" />
    <path d="M560 60 V300" />
    <path d="M80 90 H560" />
    <path d="M80 150 H560" />
    <path d="M80 210 H560" />
    <path d="M80 270 H560" />
  </g>
  <path d="M110 260 L200 200 L280 220 L360 140 L460 190 L520 120" fill="none" stroke="#f5d48b" stroke-width="8" stroke-linecap="round" stroke-linejoin="round" />
  <g fill="#f5d48b">
    <circle cx="110" cy="260" r="10" />
    <circle cx="200" cy="200" r="10" />
    <circle cx="280" cy="220" r="10" />
    <circle cx="360" cy="140" r="10" />
    <circle cx="460" cy="190" r="10" />
    <circle cx="520" cy="120" r="10" />
  </g>
  <rect x="120" y="80" width="320" height="36" rx="12" fill="rgba(8,40,33,0.55)" />
  <rect x="120" y="128" width="260" height="22" rx="11" fill="rgba(8,40,33,0.45)" />
</svg>
