<svg xmlns="http://www.w3.org/2000/svg" viewBox="0 0 600 480" role="img" aria-labelledby="title desc">
  <title id="title">Skooli expansion roadmap across Africa</title>
  <desc id="desc">Simplified map of Africa with highlighted hubs in Uganda, Kenya, and Ghana.</desc>
  <defs>
    <linearGradient id="emeraldWash" x1="0%" x2="100%" y1="0%" y2="100%">
      <stop offset="0%" stop-color="#009877" stop-opacity="0.9" />
      <stop offset="100%" stop-color="#FCE6AE" stop-opacity="0.9" />
    </linearGradient>
    <filter id="shadow" x="-10%" y="-10%" width="120%" height="120%">
      <feDropShadow dx="0" dy="12" stdDeviation="12" flood-color="#05382c" flood-opacity="0.18" />
    </filter>
  </defs>
  <rect width="600" height="480" rx="32" fill="#FCE6AE" />
  <path
    d="M216 52c58-22 118-22 168 6 64 35 101 118 97 190-6 104-97 166-178 174-82 9-168-26-206-95-36-66-18-152 28-203 26-30 56-55 91-72z"
    fill="url(#emeraldWash)"
    filter="url(#shadow)"
  />
  <g stroke="#FFD700" stroke-width="2" fill="#009877">
    <circle cx="325" cy="185" r="10" />
    <circle cx="360" cy="220" r="9" />
    <circle cx="250" cy="260" r="9" />
  </g>
  <g fill="#FFD700" font-family="'Inter', sans-serif" font-size="18" font-weight="600">
    <text x="345" y="180">Uganda HQ</text>
    <text x="380" y="225">Kenya Launch</text>
    <text x="220" y="260">Ghana Pilot</text>
  </g>
  <g stroke="#FFD700" stroke-dasharray="6 6" stroke-width="3" fill="none">
    <path d="M325 185 Q340 210 360 220" />
    <path d="M325 185 Q300 220 250 260" />
  </g>
</svg>
