<svg xmlns="http://www.w3.org/2000/svg" viewBox="0 0 540 180" role="img" aria-labelledby="iconTitle iconDesc">
  <title id="iconTitle">Skooli icon set</title>
  <desc id="iconDesc">Three line icons styled to match lucide-react stroke weight.</desc>
  <g fill="none" stroke="#009877" stroke-width="6" stroke-linecap="round" stroke-linejoin="round">
    <g transform="translate(40 40)">
      <path d="M0 20 L70 0 L140 20 V100 L70 80 L0 100 Z" />
      <path d="M70 0 V80" />
    </g>
    <g transform="translate(210 40)">
      <rect x="0" y="20" width="140" height="80" rx="16" />
      <path d="M140 60 H180 L200 90 V100 H140" />
      <circle cx="40" cy="120" r="20" />
      <circle cx="160" cy="120" r="20" />
    </g>
    <g transform="translate(390 40)">
      <path d="M0 40 L40 0 L80 40" />
      <path d="M0 100 L40 60 L80 100" />
      <path d="M20 50 L60 50" />
      <path d="M20 90 L60 90" />
    </g>
  </g>
  <g fill="#FFD700" font-family="'Inter', sans-serif" font-size="20" font-weight="600" text-anchor="middle">
    <text x="110" y="150">Learning</text>
    <text x="280" y="150">Logistics</text>
    <text x="460" y="150">Partnerships</text>
  </g>
</svg>
