<svg xmlns="http://www.w3.org/2000/svg" viewBox="0 0 1600 900" role="img" aria-labelledby="title desc">
  <title id="title">Skooli servant leadership portrait</title>
  <desc id="desc">Stylised silhouettes of Skooli leadership standing together in emerald and gold hues.</desc>
  <defs>
    <linearGradient id="emeraldGradient" x1="0" y1="0" x2="1" y2="1">
      <stop offset="0%" stop-color="#0d3b2e" />
      <stop offset="45%" stop-color="#0a7457" />
      <stop offset="100%" stop-color="#1c9471" />
    </linearGradient>
    <radialGradient id="goldHighlight" cx="0.5" cy="0.4" r="0.7">
      <stop offset="0%" stop-color="#f6e7b3" stop-opacity="0.9" />
      <stop offset="100%" stop-color="#f2c166" stop-opacity="0.2" />
    </radialGradient>
    <radialGradient id="emeraldGlow" cx="0.5" cy="0.6" r="0.9">
      <stop offset="0%" stop-color="#0c5642" stop-opacity="0.95" />
      <stop offset="100%" stop-color="#0a2d23" stop-opacity="0.7" />
    </radialGradient>
  </defs>
  <rect width="1600" height="900" fill="url(#emeraldGlow)" />
  <g opacity="0.65">
    <circle cx="350" cy="260" r="140" fill="url(#goldHighlight)" />
    <circle cx="800" cy="200" r="210" fill="url(#goldHighlight)" />
    <circle cx="1200" cy="280" r="160" fill="url(#goldHighlight)" />
  </g>
  <g fill="url(#emeraldGradient)">
    <path d="M240 830h220l-28-198c-6-40-34-72-74-84l-38-11c-38 12-64 46-64 86z" opacity="0.95" />
    <path d="M480 830h200l-18-162c-5-48-38-87-83-102l-42-13c-42 14-72 53-77 97z" opacity="0.85" />
    <path d="M720 830h220l-25-246c-7-67-60-120-127-129-4 0-8 0-12 1l-46 8c-62 15-106 71-102 136z" opacity="0.92" />
    <path d="M980 830h214l-17-196c-6-62-56-110-118-116l-40-3c-60 8-103 59-102 120z" opacity="0.88" />
    <path d="M1220 830h220l-31-162c-15-78-77-137-155-147l-22-3c-77 9-132 78-125 155z" opacity="0.82" />
  </g>
  <g fill="#f7e9c4" opacity="0.9">
    <circle cx="332" cy="340" r="64" />
    <circle cx="520" cy="308" r="70" />
    <circle cx="770" cy="260" r="96" />
    <circle cx="1038" cy="300" r="82" />
    <circle cx="1308" cy="338" r="76" />
  </g>
  <g fill="#0a4b39" opacity="0.35">
    <path d="M0 860c220-120 460-160 800-160s580 50 800 160v40H0z" />
  </g>
</svg>
